<?xml version="1.0" standalone="no"?>
<!DOCTYPE svg PUBLIC "-//W3C//DTD SVG 20010904//EN"
 "http://www.w3.org/TR/2001/REC-SVG-20010904/DTD/svg10.dtd">
<svg version="1.0" xmlns="http://www.w3.org/2000/svg"
 width="646.000000pt" height="646.000000pt" viewBox="0 0 646.000000 646.000000"
 preserveAspectRatio="xMidYMid meet">
<metadata>
Created by potrace 1.11, written by Peter Selinger 2001-2013
</metadata>
<g transform="translate(0.000000,646.000000) scale(0.100000,-0.100000)"
fill="#000000" stroke="none">
<path d="M1893 4983 c-17 -43 -38 -100 -47 -126 -14 -38 -28 -54 -69 -81 -29
-18 -65 -51 -80 -73 -34 -49 -67 -149 -67 -202 0 -53 -9 -56 -37 -14 -29 43
-47 129 -67 332 -9 79 -18 146 -21 149 -3 3 -5 -33 -6 -79 -1 -132 -10 -172
-53 -220 -51 -55 -86 -133 -86 -189 0 -25 9 -77 19 -115 11 -38 18 -71 16 -73
-1 -2 -42 36 -89 85 -96 98 -147 186 -165 287 -6 33 -13 61 -15 63 -2 3 -8
-21 -12 -53 -9 -74 7 -161 47 -255 22 -51 33 -98 39 -163 16 -164 83 -296 151
-296 42 0 14 -19 -63 -43 -157 -49 -351 -155 -488 -267 -36 -29 -88 -63 -116
-75 -109 -50 -249 -187 -301 -294 -22 -48 -25 -64 -21 -127 5 -78 32 -137 108
-239 74 -98 117 -131 250 -188 159 -69 187 -83 346 -178 152 -92 205 -105 308
-75 94 28 182 136 244 300 39 104 55 249 45 422 -5 91 -4 104 11 110 9 3 23 0
32 -7 14 -12 16 -40 12 -229 -4 -187 -8 -224 -27 -285 -31 -95 -81 -183 -152
-265 -32 -38 -59 -72 -59 -75 0 -3 47 -29 105 -57 l105 -51 0 -57 c0 -74 24
-214 51 -293 59 -174 156 -324 313 -486 163 -167 320 -276 519 -361 165 -70
456 -218 739 -377 54 -30 103 -53 110 -51 6 2 -17 20 -53 40 -35 20 -172 100
-304 178 -132 78 -313 177 -402 221 -168 83 -210 116 -239 185 -16 38 -18 74
-5 74 5 0 33 -16 62 -35 29 -19 86 -46 128 -61 391 -138 773 -303 1069 -460
57 -30 108 -54 114 -52 11 4 -101 72 -307 186 -153 85 -497 250 -629 302 -176
70 -269 160 -325 316 -47 129 -80 263 -87 357 -12 150 -68 284 -129 307 -11 4
-122 13 -245 20 -240 13 -273 21 -238 57 15 15 37 15 265 3 172 -9 353 -11
589 -6 l341 7 6 -56 c9 -88 45 -151 134 -231 293 -264 594 -453 945 -593 204
-81 302 -106 878 -221 300 -61 555 -112 568 -115 12 -3 22 -2 22 3 0 4 -33 16
-72 26 -254 65 -500 243 -658 475 -120 178 -200 421 -200 612 0 54 -6 77 -31
128 -55 110 -165 200 -291 236 -46 13 -58 21 -58 37 0 19 4 20 88 16 108 -5
152 -26 224 -106 78 -85 196 -198 253 -242 69 -53 235 -134 358 -175 282 -94
454 -85 539 27 50 67 149 237 196 339 59 125 95 228 128 365 28 115 26 149
-20 326 -54 208 -173 467 -293 643 -75 108 -130 158 -196 176 -52 14 -178 6
-304 -20 -81 -17 -100 -25 -155 -67 -87 -66 -311 -293 -379 -384 -69 -92 -82
-103 -144 -132 -44 -20 -65 -23 -175 -22 -132 0 -200 9 -200 24 0 6 19 10 43
10 49 0 141 14 247 37 93 20 119 44 150 138 47 142 123 273 259 443 91 114
168 177 301 246 170 88 213 97 493 109 136 6 246 12 244 13 -5 6 -448 62 -647
83 -331 35 -512 43 -865 39 -382 -3 -372 -2 -440 -80 -20 -24 -55 -73 -78
-110 -65 -106 -75 -82 -23 55 32 83 32 108 4 134 -29 27 -96 46 -278 78 -233
42 -322 63 -463 112 -82 28 -157 47 -198 50 -60 5 -71 3 -100 -19 -19 -14 -54
-30 -78 -37 -51 -15 -106 -48 -140 -84 -13 -15 -27 -24 -32 -21 -13 8 27 109
68 171 21 32 42 64 46 71 4 6 4 12 -1 12 -5 0 -29 -25 -52 -56 -29 -39 -55
-61 -88 -75 -67 -29 -139 -86 -182 -147 -21 -29 -41 -49 -44 -44 -8 13 22 118
54 188 15 33 51 96 80 138 28 43 50 80 47 82 -5 5 -83 -84 -131 -149 -20 -27
-49 -48 -101 -72 -81 -37 -125 -84 -147 -159 l-13 -41 -3 48 c-6 92 61 289
138 405 12 17 18 32 13 32 -9 0 -101 -136 -134 -197 -9 -16 -40 -43 -70 -60
-99 -56 -163 -149 -176 -253 -14 -120 -40 6 -30 149 3 47 20 155 37 240 17 85
28 156 26 158 -2 2 -17 -31 -33 -74z m-842 -1458 c96 -63 89 -223 -11 -276
-47 -25 -125 -25 -168 1 -62 38 -93 119 -72 187 35 109 155 151 251 88z"/>
</g>
</svg>
